<mxfile host="app.diagrams.net" modified="2022-02-11T04:37:56.334Z" agent="5.0 (Windows NT 10.0; Win64; x64) AppleWebKit/537.36 (KHTML, like Gecko) Chrome/98.0.4758.82 Safari/537.36" etag="n7oZcHm_FMiCX2BETG1o" version="16.5.5" type="github">
  <diagram id="poLRrB77zF2vc6yQU2CP" name="Page-1">
    <mxGraphModel dx="774" dy="467" grid="1" gridSize="10" guides="1" tooltips="1" connect="1" arrows="1" fold="1" page="1" pageScale="1" pageWidth="1654" pageHeight="1169" math="0" shadow="0">
      <root>
        <mxCell id="0" />
        <mxCell id="1" parent="0" />
        <mxCell id="HIDdaLj1h3sHS_58LPtQ-2" value="" style="rounded=0;whiteSpace=wrap;html=1;" parent="1" vertex="1">
          <mxGeometry x="140" y="40" width="580" height="360" as="geometry" />
        </mxCell>
        <mxCell id="HIDdaLj1h3sHS_58LPtQ-3" value="" style="rounded=0;whiteSpace=wrap;html=1;" parent="1" vertex="1">
          <mxGeometry x="240" y="130" width="350" height="160" as="geometry" />
        </mxCell>
        <mxCell id="HIDdaLj1h3sHS_58LPtQ-4" value="" style="rounded=0;whiteSpace=wrap;html=1;" parent="1" vertex="1">
          <mxGeometry x="270" y="210" width="110" height="50" as="geometry" />
        </mxCell>
        <mxCell id="HIDdaLj1h3sHS_58LPtQ-5" value="" style="rounded=0;whiteSpace=wrap;html=1;" parent="1" vertex="1">
          <mxGeometry x="450" y="210" width="100" height="50" as="geometry" />
        </mxCell>
        <mxCell id="HIDdaLj1h3sHS_58LPtQ-6" value="JavaFX Client" style="text;html=1;strokeColor=none;fillColor=none;align=center;verticalAlign=middle;whiteSpace=wrap;rounded=0;" parent="1" vertex="1">
          <mxGeometry x="280" y="220" width="90" height="30" as="geometry" />
        </mxCell>
        <mxCell id="HIDdaLj1h3sHS_58LPtQ-7" value="Reg Services&lt;br&gt;Libraries" style="text;html=1;strokeColor=none;fillColor=none;align=center;verticalAlign=middle;whiteSpace=wrap;rounded=0;" parent="1" vertex="1">
          <mxGeometry x="450" y="210" width="100" height="50" as="geometry" />
        </mxCell>
        <mxCell id="HIDdaLj1h3sHS_58LPtQ-9" value="" style="endArrow=none;html=1;rounded=0;entryX=0;entryY=0.5;entryDx=0;entryDy=0;exitX=1;exitY=0.5;exitDx=0;exitDy=0;" parent="1" source="HIDdaLj1h3sHS_58LPtQ-4" target="HIDdaLj1h3sHS_58LPtQ-7" edge="1">
          <mxGeometry width="50" height="50" relative="1" as="geometry">
            <mxPoint x="380" y="190" as="sourcePoint" />
            <mxPoint x="430" y="140" as="targetPoint" />
          </mxGeometry>
        </mxCell>
        <mxCell id="HIDdaLj1h3sHS_58LPtQ-10" value="&lt;b&gt;&lt;font style=&quot;font-size: 14px&quot;&gt;Registration Client&lt;/font&gt;&lt;/b&gt;" style="text;html=1;strokeColor=none;fillColor=none;align=center;verticalAlign=middle;whiteSpace=wrap;rounded=0;" parent="1" vertex="1">
          <mxGeometry x="270" y="120" width="210" height="70" as="geometry" />
        </mxCell>
        <mxCell id="HIDdaLj1h3sHS_58LPtQ-12" value="" style="shape=cylinder3;whiteSpace=wrap;html=1;boundedLbl=1;backgroundOutline=1;size=15;" parent="1" vertex="1">
          <mxGeometry x="620" y="190" width="50" height="80" as="geometry" />
        </mxCell>
        <mxCell id="HIDdaLj1h3sHS_58LPtQ-15" value="Derby DB" style="text;html=1;strokeColor=none;fillColor=none;align=center;verticalAlign=middle;whiteSpace=wrap;rounded=0;" parent="1" vertex="1">
          <mxGeometry x="620" y="230" width="50" height="30" as="geometry" />
        </mxCell>
        <mxCell id="HIDdaLj1h3sHS_58LPtQ-20" value="HOST MACHINE" style="text;html=1;strokeColor=none;fillColor=none;align=center;verticalAlign=middle;whiteSpace=wrap;rounded=0;" parent="1" vertex="1">
          <mxGeometry x="150" y="60" width="160" height="40" as="geometry" />
        </mxCell>
        <mxCell id="HIDdaLj1h3sHS_58LPtQ-21" value="SBI Service" style="rounded=0;whiteSpace=wrap;html=1;" parent="1" vertex="1">
          <mxGeometry x="430" y="70" width="120" height="40" as="geometry" />
        </mxCell>
        <mxCell id="HIDdaLj1h3sHS_58LPtQ-25" value="TPM" style="rounded=0;whiteSpace=wrap;html=1;" parent="1" vertex="1">
          <mxGeometry x="470" y="350" width="60" height="40" as="geometry" />
        </mxCell>
        <mxCell id="HIDdaLj1h3sHS_58LPtQ-33" value="" style="endArrow=classic;startArrow=classic;html=1;rounded=0;entryX=0.5;entryY=1;entryDx=0;entryDy=0;" parent="1" target="HIDdaLj1h3sHS_58LPtQ-7" edge="1">
          <mxGeometry width="50" height="50" relative="1" as="geometry">
            <mxPoint x="500" y="350" as="sourcePoint" />
            <mxPoint x="540" y="240" as="targetPoint" />
          </mxGeometry>
        </mxCell>
        <mxCell id="HIDdaLj1h3sHS_58LPtQ-37" value="" style="aspect=fixed;html=1;points=[];align=center;image;fontSize=12;image=img/lib/azure2/general/Folder_Blank.svg;" parent="1" vertex="1">
          <mxGeometry x="258.39" y="340" width="61.61" height="50" as="geometry" />
        </mxCell>
        <mxCell id="HIDdaLj1h3sHS_58LPtQ-38" value="" style="aspect=fixed;html=1;points=[];align=center;image;fontSize=12;image=img/lib/azure2/general/Folder_Blank.svg;" parent="1" vertex="1">
          <mxGeometry x="368.39" y="340" width="61.61" height="50" as="geometry" />
        </mxCell>
        <mxCell id="HIDdaLj1h3sHS_58LPtQ-39" value="Config" style="text;html=1;strokeColor=none;fillColor=none;align=center;verticalAlign=middle;whiteSpace=wrap;rounded=0;" parent="1" vertex="1">
          <mxGeometry x="258.39" y="310" width="60" height="120" as="geometry" />
        </mxCell>
        <mxCell id="HIDdaLj1h3sHS_58LPtQ-41" value="Packets" style="text;html=1;strokeColor=none;fillColor=none;align=center;verticalAlign=middle;whiteSpace=wrap;rounded=0;" parent="1" vertex="1">
          <mxGeometry x="370" y="360" width="60" height="25" as="geometry" />
        </mxCell>
        <mxCell id="HIDdaLj1h3sHS_58LPtQ-43" value="Bio-SDKs" style="rounded=0;whiteSpace=wrap;html=1;" parent="1" vertex="1">
          <mxGeometry x="470" y="150" width="60" height="40" as="geometry" />
        </mxCell>
        <mxCell id="HIDdaLj1h3sHS_58LPtQ-44" value="" style="endArrow=classic;startArrow=classic;html=1;rounded=0;exitX=1;exitY=0.5;exitDx=0;exitDy=0;" parent="1" source="HIDdaLj1h3sHS_58LPtQ-7" edge="1">
          <mxGeometry width="50" height="50" relative="1" as="geometry">
            <mxPoint x="470" y="190" as="sourcePoint" />
            <mxPoint x="620" y="235" as="targetPoint" />
            <Array as="points" />
          </mxGeometry>
        </mxCell>
        <mxCell id="HIDdaLj1h3sHS_58LPtQ-47" value="" style="endArrow=classic;startArrow=classic;html=1;rounded=0;" parent="1" edge="1">
          <mxGeometry width="50" height="50" relative="1" as="geometry">
            <mxPoint x="280" y="340" as="sourcePoint" />
            <mxPoint x="280" y="290" as="targetPoint" />
            <Array as="points" />
          </mxGeometry>
        </mxCell>
        <mxCell id="HIDdaLj1h3sHS_58LPtQ-49" value="" style="endArrow=classic;html=1;rounded=0;exitX=0;exitY=0.75;exitDx=0;exitDy=0;entryX=0.399;entryY=0;entryDx=0;entryDy=0;entryPerimeter=0;" parent="1" source="HIDdaLj1h3sHS_58LPtQ-7" target="HIDdaLj1h3sHS_58LPtQ-38" edge="1">
          <mxGeometry width="50" height="50" relative="1" as="geometry">
            <mxPoint x="360" y="230" as="sourcePoint" />
            <mxPoint x="410" y="180" as="targetPoint" />
            <Array as="points">
              <mxPoint x="393" y="248" />
            </Array>
          </mxGeometry>
        </mxCell>
        <mxCell id="HIDdaLj1h3sHS_58LPtQ-54" value="" style="endArrow=none;html=1;rounded=0;" parent="1" edge="1">
          <mxGeometry width="50" height="50" relative="1" as="geometry">
            <mxPoint x="460" y="210" as="sourcePoint" />
            <mxPoint x="460" y="110" as="targetPoint" />
          </mxGeometry>
        </mxCell>
        <mxCell id="HIDdaLj1h3sHS_58LPtQ-55" value="" style="endArrow=none;html=1;rounded=0;exitX=0.5;exitY=0;exitDx=0;exitDy=0;" parent="1" source="HIDdaLj1h3sHS_58LPtQ-7" edge="1">
          <mxGeometry width="50" height="50" relative="1" as="geometry">
            <mxPoint x="480" y="230" as="sourcePoint" />
            <mxPoint x="500" y="190" as="targetPoint" />
          </mxGeometry>
        </mxCell>
      </root>
    </mxGraphModel>
  </diagram>
</mxfile>
